<svg xmlns="http://www.w3.org/2000/svg" viewBox="0 0 64 64">
  <defs>
    <linearGradient id="bg" x1="0" y1="0" x2="1" y2="1">
      <stop offset="0%" stop-color="#1e1a10" />
      <stop offset="100%" stop-color="#3a2c1d" />
    </linearGradient>
    <linearGradient id="gold" x1="0" y1="0" x2="1" y2="1">
      <stop offset="0%" stop-color="#c9a84c" />
      <stop offset="100%" stop-color="#8f5f1d" />
    </linearGradient>
  </defs>

  <rect x="2" y="2" width="60" height="60" rx="14" fill="url(#bg)" />

  <path d="M21 19c0 10 8 18 18 18-3 3-7 5-12 5-9 0-17-8-17-17 0-8 6-15 14-17-2 3-3 7-3 11z" fill="url(#gold)" />

  <path d="M30 24c7 0 12 2 16 5v14c-4-3-9-5-16-5-4 0-8 1-11 3V27c3-2 7-3 11-3z" fill="none" stroke="#f6ecdf" stroke-width="2.2" stroke-linejoin="round" />
  <path d="M30 24v14" stroke="#f6ecdf" stroke-width="2.2" />

  <circle cx="49" cy="16" r="2.6" fill="#c9a84c" />
</svg>
